# xmcd
#
# Track frame offsets:
#	150
#	15564
#	30085
#	44710
#	58530
#	74276
#	88991
#	101253
#	113718
#	126313
#	139304
#	152346
#	165655
#	179218
#	192133
#	207280
#	222508
#	235725
#	248296
#	261380
#	272553
#	286685
#	298472
#	311435
#	323235
#
# Disc length: 4487 seconds
# Revision: 2
# Processed by: cddbd v1.5.2PL0 Copyright (c) Steve Scherf et al.
# Submitted via: dBpowerAMP V12.0
#
DISCID=70118519
DTITLE=Various Artist - Blowing the Blues
DYEAR=2003
DGENRE=Blues
TTITLE0=Memphis Jug Band - Sun Brimmer's Blues
TTITLE1=Robert Cooksey - Need More Blues
TTITLE2=DeFord Bailey - Up Country Blues
TTITLE3=Jaybird Coleman - Man Trouble Blues
TTITLE4=Mississippi Sarah - Greenville Strut
TTITLE5=Noah Lewis - Chickasaw Special
TTITLE6=Minnie Wallace - The Old Folks Started It
TTITLE7=George "Bullet" Williams - Touch Me Light Mama
TTITLE8=Slim Barton - Fourth Avenue Blues
TTITLE9=El Watson - El Watson's Fox Chase
TTITLE10=Freeman Stowers - Medley of Blues
TTITLE11=Jed Davenport - Beale Street Breakdown
TTITLE12=Ollis Martin - Police and High Sheriff Come Ridin' Down
TTITLE13=Memphis Minnie - Bumble Bee Blues
TTITLE14=Blues Birdhead - Mean Low Blues
TTITLE15=Alfred Lewis - Mississippi Swamp Moan
TTITLE16=Georgia Browns, The - Tampa Strut
TTITLE17=Jazz Gillum - Harmonica Stomp
TTITLE18=Blind Boy Fuller - I'm a Stranger Here
TTITLE19=Eddie Kelly's Washboard Band - Blues in the Rain
TTITLE20=Sonny Boy Williamson - You Can Lead Me
TTITLE21=Little Buddy Doyle - Slick Caper Blues
TTITLE22=Sonny Terry - Blowing the Blues
TTITLE23=Frank Edwards - We Got to Get Together
TTITLE24=Skoodle Dum Doo - Tampa Blues
EXTD=
EXTT0=
EXTT1=
EXTT2=
EXTT3=
EXTT4=
EXTT5=
EXTT6=
EXTT7=
EXTT8=
EXTT9=
EXTT10=
EXTT11=
EXTT12=
EXTT13=
EXTT14=
EXTT15=
EXTT16=
EXTT17=
EXTT18=
EXTT19=
EXTT20=
EXTT21=
EXTT22=
EXTT23=
EXTT24=
PLAYORDER=
